<?xml version="1.0" encoding="iso-8859-1"?>
<!-- Uploaded to: SVG Repo, www.svgrepo.com, Generator: SVG Repo Mixer Tools -->
<svg fill="#000000" height="800px" width="800px" version="1.1" id="Layer_1" xmlns="http://www.w3.org/2000/svg" xmlns:xlink="http://www.w3.org/1999/xlink" 
	 viewBox="0 0 168.091 168.091" xml:space="preserve">
<g>
	<g>
		<path d="M166.33,1.762c-11.954-11.957-65.214,40.65-71.249,46.683c-5.046,5.048-42.614,43.108-47.817,62.428
			c-10.274-4.008-25.091,0.649-36.947,12.506c-14,14-9.753,40.022-9.567,41.122c0.248,1.456,1.388,2.592,2.842,2.84
			c0.424,0.075,4.555,0.75,10.276,0.75c9.109,0,22.245-1.717,30.845-10.315c6.693-6.691,11.352-14.689,13.12-22.514
			c1.205-5.336,0.985-10.212-0.562-14.296c4.189-1.196,10.189-4.227,19.085-10.488c12.687-8.927,28.061-22.232,43.293-37.464
			C125.684,66.978,178.269,13.702,166.33,1.762z M51.055,133.731c-1.483,6.559-5.48,13.356-11.255,19.131
			c-9.209,9.206-26.127,8.564-32.51,7.94c-0.624-6.393-1.266-23.304,7.94-32.51c11.321-11.316,26.514-15.259,33.17-8.598
			C51.464,122.758,52.407,127.743,51.055,133.731z M114.736,68.101c-32.405,32.401-56.214,47.009-61.302,46.557
			c-0.38-5.147,14.166-28.906,46.561-61.301c6.238-6.238,12.143-11.793,17.669-16.729l13.802,13.803
			C126.532,55.958,120.972,61.865,114.736,68.101z M136.055,45.196L122.901,32.04c20.027-17.202,34.073-25.249,38.191-25.249
			c0.071,0,0.139,0,0.205,0.007C161.579,10.635,153.558,24.817,136.055,45.196z"/>
	</g>
</g>
</svg>